<svg data-v-423bf9ae="" xmlns="http://www.w3.org/2000/svg" viewBox="0 0 437 90" class="iconLeftSlogan"><!----><defs data-v-423bf9ae=""><linearGradient data-v-423bf9ae="" gradientTransform="rotate(25)" id="4d1f89af-b76b-44dd-818b-c82fc0d0b9fd" x1="0%" y1="0%" x2="100%" y2="0%"><stop data-v-423bf9ae="" offset="0%" style="stop-color: rgb(201, 58, 95); stop-opacity: 1;"></stop><stop data-v-423bf9ae="" offset="100%" style="stop-color: rgb(239, 176, 202); stop-opacity: 1;"></stop></linearGradient></defs><!----><g data-v-423bf9ae="" id="005e1420-5383-46ed-8f9a-298115fc8ebf" fill="#ffffff" transform="matrix(5.825242610575063,0,0,5.825242610575063,106.14089256039054,-21.14563181987075)"><path d="M8.43 12.21C8.40 12.18 8.36 12.15 8.32 12.15C8.29 12.15 8.27 12.15 8.25 12.17C8.23 12.18 8.20 12.21 8.18 12.22C7.98 12.40 7.77 12.56 7.57 12.70C7.38 12.84 7.17 12.94 6.93 13.03C6.69 13.13 6.44 13.20 6.16 13.24C5.88 13.29 5.57 13.31 5.22 13.31C4.66 13.31 4.12 13.22 3.64 13.01C3.15 12.81 2.74 12.52 2.39 12.14C2.04 11.76 1.75 11.28 1.55 10.74C1.36 10.19 1.26 9.56 1.26 8.86C1.26 8.18 1.36 7.56 1.55 7.01C1.76 6.47 2.04 6.01 2.41 5.61C2.77 5.24 3.21 4.94 3.71 4.73C4.21 4.52 4.76 4.42 5.36 4.42C6.26 4.42 7.08 4.56 7.81 4.89C7.85 5.78 7.90 6.30 7.90 6.41C7.91 6.64 7.99 6.75 8.19 6.75L8.53 6.75L8.53 4.51C7.35 4.03 6.29 3.81 5.36 3.81C4.65 3.81 4.00 3.92 3.40 4.17C2.81 4.42 2.28 4.76 1.86 5.21C1.43 5.66 1.11 6.19 0.87 6.80C0.63 7.42 0.52 8.11 0.52 8.86C0.52 9.63 0.64 10.32 0.87 10.95C1.09 11.58 1.41 12.10 1.82 12.54C2.23 12.99 2.72 13.33 3.29 13.57C3.86 13.80 4.48 13.93 5.17 13.93C5.57 13.93 5.95 13.90 6.30 13.83C6.64 13.76 6.96 13.66 7.25 13.54C7.53 13.41 7.80 13.26 8.04 13.09C8.27 12.91 8.50 12.73 8.71 12.50ZM17.18 13.29L17.09 13.29L17.00 13.29C16.95 13.29 16.88 13.27 16.79 13.27C16.69 13.27 16.56 13.26 16.44 13.26L16.44 9.37C16.44 8.96 16.39 8.60 16.30 8.27C16.20 7.95 16.06 7.67 15.86 7.45C15.67 7.22 15.43 7.06 15.13 6.93C14.84 6.80 14.50 6.75 14.13 6.75C13.61 6.75 13.15 6.86 12.73 7.10C12.32 7.34 11.96 7.66 11.63 8.05L11.63 3.64L10.96 3.64L9.95 3.64L9.95 3.91C9.95 4.06 10.05 4.14 10.23 4.16L10.30 4.16C10.33 4.16 10.37 4.17 10.42 4.17L10.63 4.17C10.72 4.17 10.84 4.19 10.96 4.19L10.96 13.26C10.81 13.26 10.67 13.29 10.56 13.29L10.32 13.29L10.23 13.29C10.05 13.30 9.95 13.38 9.95 13.54L9.95 13.82L10.96 13.82L11.63 13.82L12.64 13.82L12.64 13.54C12.64 13.38 12.54 13.30 12.36 13.29L12.29 13.29L12.18 13.29C12.14 13.29 12.07 13.27 11.97 13.27C11.87 13.27 11.76 13.26 11.63 13.26L11.63 8.60C11.94 8.19 12.29 7.87 12.68 7.63C13.08 7.39 13.50 7.28 13.96 7.28C14.57 7.28 15.04 7.46 15.33 7.83C15.62 8.20 15.78 8.71 15.78 9.37L15.78 13.82L16.44 13.82L17.44 13.82L17.44 13.54C17.44 13.38 17.36 13.30 17.18 13.29ZM24.30 13.29L24.21 13.29L23.98 13.29C23.88 13.29 23.77 13.27 23.66 13.27L23.66 9.28C23.66 8.89 23.62 8.55 23.52 8.23C23.42 7.91 23.28 7.64 23.10 7.42C22.92 7.20 22.68 7.03 22.40 6.92C22.12 6.79 21.80 6.73 21.42 6.73C20.92 6.73 20.47 6.83 20.06 7.01C19.66 7.20 19.28 7.48 18.91 7.84L19.03 8.05C19.07 8.13 19.14 8.18 19.24 8.18C19.31 8.18 19.40 8.12 19.50 8.02C19.60 7.92 19.74 7.84 19.91 7.73C20.08 7.62 20.26 7.52 20.50 7.42C20.73 7.32 21.01 7.28 21.35 7.28C21.90 7.28 22.32 7.45 22.60 7.80C22.88 8.15 23.00 8.64 23.00 9.28L23.00 10.01C22.22 10.02 21.55 10.09 20.99 10.21C20.43 10.32 19.96 10.47 19.60 10.65C19.24 10.84 18.98 11.06 18.82 11.31C18.65 11.56 18.56 11.83 18.56 12.12C18.56 12.45 18.62 12.73 18.72 12.95C18.83 13.17 18.97 13.36 19.14 13.50C19.31 13.64 19.52 13.75 19.74 13.82C19.96 13.89 20.19 13.93 20.43 13.93C20.71 13.93 20.97 13.90 21.21 13.85C21.45 13.79 21.66 13.71 21.87 13.61C22.08 13.51 22.27 13.38 22.47 13.23C22.65 13.08 22.83 12.91 23.03 12.73L23.13 13.62C23.16 13.75 23.25 13.82 23.39 13.82L23.41 13.82L23.66 13.82L24.58 13.82L24.58 13.54C24.58 13.38 24.49 13.30 24.30 13.29ZM23.00 12.26C22.83 12.43 22.68 12.60 22.51 12.74C22.34 12.88 22.16 13.01 21.97 13.12C21.77 13.23 21.56 13.30 21.34 13.36C21.11 13.41 20.86 13.44 20.59 13.44C20.41 13.44 20.23 13.43 20.06 13.37C19.89 13.31 19.75 13.24 19.63 13.13C19.50 13.02 19.39 12.88 19.32 12.71C19.24 12.54 19.21 12.35 19.21 12.11C19.21 11.86 19.28 11.63 19.43 11.44C19.59 11.24 19.81 11.09 20.12 10.95C20.43 10.81 20.82 10.70 21.29 10.61C21.77 10.53 22.34 10.47 23.00 10.46ZM33.12 13.29L33.05 13.29L32.94 13.29C32.90 13.29 32.83 13.27 32.73 13.27C32.63 13.27 32.52 13.26 32.40 13.26L32.40 9.37C32.40 8.96 32.34 8.60 32.24 8.27C32.14 7.95 32.00 7.67 31.81 7.45C31.61 7.22 31.37 7.06 31.08 6.93C30.79 6.80 30.45 6.75 30.07 6.75C29.55 6.75 29.08 6.87 28.66 7.11C28.24 7.36 27.87 7.67 27.55 8.08L27.50 7.03C27.48 6.92 27.41 6.86 27.29 6.86L26.92 6.86L25.91 6.86L25.91 7.13C25.91 7.28 26.00 7.36 26.18 7.38L26.26 7.38C26.29 7.38 26.32 7.39 26.36 7.39L26.57 7.39C26.67 7.39 26.80 7.41 26.92 7.41L26.92 13.26C26.75 13.26 26.61 13.29 26.50 13.29L26.28 13.29L26.18 13.29C26.00 13.30 25.91 13.38 25.91 13.54L25.91 13.82L26.92 13.82L27.58 13.82L28.59 13.82L28.59 13.54C28.59 13.38 28.50 13.30 28.32 13.29L28.24 13.29L28.14 13.29C28.10 13.29 28.03 13.27 27.93 13.27C27.83 13.27 27.71 13.26 27.58 13.26L27.58 8.60C27.89 8.19 28.24 7.87 28.63 7.63C29.02 7.39 29.44 7.28 29.90 7.28C30.52 7.28 30.98 7.46 31.28 7.83C31.57 8.20 31.72 8.71 31.72 9.37L31.72 13.82L32.40 13.82L33.40 13.82L33.40 13.54C33.40 13.38 33.31 13.30 33.12 13.29ZM36.90 13.93C37.20 13.93 37.48 13.86 37.76 13.75C38.02 13.64 38.25 13.48 38.43 13.29L38.25 12.98C38.21 12.94 38.18 12.92 38.14 12.92C38.11 12.92 38.05 12.94 38.00 12.99C37.94 13.05 37.87 13.09 37.79 13.15C37.70 13.20 37.59 13.26 37.46 13.31C37.34 13.37 37.21 13.38 37.04 13.38C36.90 13.38 36.76 13.36 36.65 13.31C36.54 13.27 36.44 13.20 36.36 13.12C36.27 13.03 36.20 12.92 36.15 12.78C36.09 12.64 36.08 12.49 36.08 12.29L36.08 7.57L38.28 7.57L38.28 7.07L36.08 7.07L36.08 4.41L35.76 4.41C35.70 4.41 35.67 4.44 35.64 4.47C35.62 4.49 35.59 4.54 35.59 4.58L35.42 7.07L34.23 7.15L34.23 7.41C34.23 7.46 34.24 7.49 34.27 7.52C34.30 7.55 34.36 7.57 34.41 7.57L35.41 7.57L35.41 12.33C35.41 12.88 35.53 13.27 35.80 13.54C36.06 13.80 36.43 13.93 36.90 13.93ZM45.26 13.29L45.16 13.29L44.94 13.29C44.84 13.29 44.73 13.27 44.62 13.27L44.62 9.28C44.62 8.89 44.58 8.55 44.48 8.23C44.38 7.91 44.24 7.64 44.06 7.42C43.88 7.20 43.64 7.03 43.36 6.92C43.08 6.79 42.76 6.73 42.38 6.73C41.87 6.73 41.43 6.83 41.02 7.01C40.61 7.20 40.24 7.48 39.87 7.84L39.98 8.05C40.03 8.13 40.10 8.18 40.19 8.18C40.26 8.18 40.36 8.12 40.46 8.02C40.56 7.92 40.70 7.84 40.87 7.73C41.03 7.62 41.22 7.52 41.45 7.42C41.69 7.32 41.97 7.28 42.31 7.28C42.85 7.28 43.27 7.45 43.55 7.80C43.83 8.15 43.96 8.64 43.96 9.28L43.96 10.01C43.18 10.02 42.50 10.09 41.94 10.21C41.38 10.32 40.92 10.47 40.56 10.65C40.19 10.84 39.94 11.06 39.77 11.31C39.61 11.56 39.52 11.83 39.52 12.12C39.52 12.45 39.58 12.73 39.68 12.95C39.79 13.17 39.93 13.36 40.10 13.50C40.26 13.64 40.47 13.75 40.70 13.82C40.92 13.89 41.15 13.93 41.38 13.93C41.66 13.93 41.93 13.90 42.17 13.85C42.41 13.79 42.62 13.71 42.83 13.61C43.04 13.51 43.23 13.38 43.43 13.23C43.61 13.08 43.79 12.91 43.99 12.73L44.09 13.62C44.11 13.75 44.21 13.82 44.35 13.82L44.37 13.82L44.62 13.82L45.54 13.82L45.54 13.54C45.54 13.38 45.44 13.30 45.26 13.29ZM43.96 12.26C43.79 12.43 43.64 12.60 43.47 12.74C43.30 12.88 43.12 13.01 42.92 13.12C42.73 13.23 42.52 13.30 42.29 13.36C42.07 13.41 41.82 13.44 41.55 13.44C41.37 13.44 41.19 13.43 41.02 13.37C40.85 13.31 40.71 13.24 40.59 13.13C40.46 13.02 40.35 12.88 40.28 12.71C40.19 12.54 40.17 12.35 40.17 12.11C40.17 11.86 40.24 11.63 40.39 11.44C40.54 11.24 40.77 11.09 41.08 10.95C41.38 10.81 41.78 10.70 42.25 10.61C42.73 10.53 43.30 10.47 43.96 10.46ZM49.24 13.29L49.17 13.29L49.06 13.29C49.01 13.29 48.94 13.27 48.85 13.27C48.75 13.27 48.64 13.26 48.51 13.26L48.51 3.63L47.84 3.63L46.83 3.63L46.83 3.91C46.83 4.06 46.93 4.14 47.11 4.16L47.18 4.16C47.21 4.16 47.25 4.17 47.29 4.17L47.50 4.17C47.60 4.17 47.71 4.19 47.84 4.19L47.84 13.26C47.68 13.26 47.54 13.29 47.43 13.29L47.19 13.29L47.11 13.29C46.93 13.30 46.83 13.38 46.83 13.54L46.83 13.82L47.84 13.82L48.51 13.82L49.52 13.82L49.52 13.54C49.52 13.38 49.42 13.30 49.24 13.29ZM56.35 13.29L56.25 13.29L56.03 13.29C55.93 13.29 55.82 13.27 55.71 13.27L55.71 9.28C55.71 8.89 55.66 8.55 55.57 8.23C55.47 7.91 55.33 7.64 55.15 7.42C54.96 7.20 54.73 7.03 54.45 6.92C54.17 6.79 53.84 6.73 53.47 6.73C52.96 6.73 52.51 6.83 52.11 7.01C51.70 7.20 51.32 7.48 50.96 7.84L51.07 8.05C51.11 8.13 51.18 8.18 51.28 8.18C51.35 8.18 51.45 8.12 51.55 8.02C51.65 7.92 51.79 7.84 51.95 7.73C52.12 7.62 52.30 7.52 52.54 7.42C52.78 7.32 53.06 7.28 53.40 7.28C53.94 7.28 54.36 7.45 54.64 7.80C54.92 8.15 55.05 8.64 55.05 9.28L55.05 10.01C54.26 10.02 53.59 10.09 53.03 10.21C52.47 10.32 52.01 10.47 51.65 10.65C51.28 10.84 51.03 11.06 50.86 11.31C50.69 11.56 50.61 11.83 50.61 12.12C50.61 12.45 50.67 12.73 50.76 12.95C50.88 13.17 51.02 13.36 51.18 13.50C51.35 13.64 51.56 13.75 51.79 13.82C52.01 13.89 52.23 13.93 52.47 13.93C52.75 13.93 53.02 13.90 53.26 13.85C53.49 13.79 53.70 13.71 53.91 13.61C54.12 13.51 54.32 13.38 54.52 13.23C54.70 13.08 54.88 12.91 55.08 12.73L55.17 13.62C55.20 13.75 55.30 13.82 55.44 13.82L55.45 13.82L55.71 13.82L56.63 13.82L56.63 13.54C56.63 13.38 56.53 13.30 56.35 13.29ZM55.05 12.26C54.88 12.43 54.73 12.60 54.56 12.74C54.39 12.88 54.21 13.01 54.01 13.12C53.82 13.23 53.61 13.30 53.38 13.36C53.16 13.41 52.91 13.44 52.64 13.44C52.46 13.44 52.28 13.43 52.11 13.37C51.94 13.31 51.80 13.24 51.67 13.13C51.55 13.02 51.44 12.88 51.37 12.71C51.28 12.54 51.25 12.35 51.25 12.11C51.25 11.86 51.32 11.63 51.48 11.44C51.63 11.24 51.86 11.09 52.16 10.95C52.47 10.81 52.86 10.70 53.34 10.61C53.82 10.53 54.39 10.47 55.05 10.46Z"></path></g><!----><g data-v-423bf9ae="" id="587fb7c4-788d-458d-a38c-b12b187a0c2d" transform="matrix(1.0102030120568595,0,0,1.0102030120568595,-5.6508339676599135,-5.056259417589125)" stroke="none" fill="#ffffff"><path d="M46.887 48.344c-.031.825.245 1.565.797 2.139.783.813 1.906 1.103 2.695 1.103 1.063 0 2.396-.564 3.099-1.314.383-.407.571-.856.543-1.298l-.012-.213c-.062-1.179-.19-3.634-3.63-3.634-2.363.003-3.407.965-3.492 3.217zm6.448.453l.011.219c.021.317-.185.606-.361.793-.58.617-1.724 1.101-2.605 1.101-.621 0-1.571-.234-2.208-.896-.428-.444-.633-.998-.608-1.645.071-1.892.809-2.563 2.826-2.566 2.788-.001 2.878 1.73 2.945 2.994z"></path><path d="M51.056 63.002c.222.007.442.01.664.01 2.94 0 7.074-.637 10.064-3.67 2.388-2.422 3.566-5.9 3.502-10.338-.146-10.286-8.405-14.02-13.921-14.02-.104 0-.206.001-.308.004-4.24.112-7.543.907-10.099 2.432-3.858 2.304-5.781 6.2-5.713 11.582.149 11.897 8.076 13.753 15.811 14zM35.929 49.323l6.004-.217c.018.622.078 1.195.169 1.73l-6 .798a22.342 22.342 0 0 1-.173-2.311zm.274 2.979l6.036-.802c.073.302.157.591.252.863l-5.627 2.496a14.595 14.595 0 0 1-.661-2.557zm2.268 5.498a10.206 10.206 0 0 1-1.359-2.312l5.629-2.496c.139.311.292.602.457.873L38.471 57.8zm.437.515l4.672-3.889c.17.226.349.436.535.63l-3.918 4.434a9.265 9.265 0 0 1-1.289-1.175zm1.844 1.567l3.851-4.357a7.1 7.1 0 0 0 .795.593l-2.162 4.987a11.928 11.928 0 0 1-2.484-1.223zm8.012 2.314a28.65 28.65 0 0 1-1.961-.225l1.47-4.613-.644-.205-1.5 4.708a18.753 18.753 0 0 1-2.25-.541l2.105-4.856c.941.501 1.917.784 2.779.941v4.791zm.676.052v-4.739c.504.062.943.083 1.278.087l.01 4.719a67.645 67.645 0 0 1-1.288-.067zm2.28.089c-.105 0-.21-.004-.316-.006l-.01-4.746c.236-.007.484-.019.736-.034l.749 4.75a19.59 19.59 0 0 1-1.159.036zm1.834-.089l-.749-4.752c.38-.039.768-.093 1.158-.163l1.992 4.453.616-.275-1.933-4.322a9.478 9.478 0 0 0 1.487-.49l2.476 4.139c-1.662.851-3.44 1.251-5.047 1.41zm5.639-1.737l-2.454-4.105a6.4 6.4 0 0 0 .859-.549l3.374 3.33c-.56.519-1.158.956-1.779 1.324zm2.257-1.802l-3.336-3.293c.096-.09.192-.181.282-.279.136-.146.261-.301.38-.461l3.925 2.406c-.364.588-.782 1.13-1.251 1.627zm1.591-2.212l-3.889-2.384a6.87 6.87 0 0 0 .518-1.101l4.043 1.972c-.193.53-.416 1.036-.672 1.513zm.889-2.16l-4.053-1.976c.106-.399.188-.822.244-1.268l4.278 1.165c-.112.73-.268 1.424-.469 2.079zm.559-2.754l-4.307-1.172c.014-.242.022-.488.023-.74h4.403a18.885 18.885 0 0 1-.119 1.912zm.121-2.588h-4.421c-.003-.082-.005-.163-.01-.246a19.97 19.97 0 0 0-.115-1.252l4.415-.357c.076.601.122 1.218.131 1.855zm-.226-2.526l-4.413.356a14.265 14.265 0 0 0-.182-.924l4.061-1.584c.23.686.407 1.404.534 2.152zm-.764-2.788l-4.006 1.563a8.79 8.79 0 0 0-.462-1.225l.081.149 3.675-1.99c.267.481.506.981.712 1.503zm-1.058-2.084l-3.639 1.971a6.147 6.147 0 0 0-.488-.746l2.474-3.29a11.76 11.76 0 0 1 1.653 2.065zm-2.745-3.028c.205.161.403.327.596.499l-2.43 3.23a5.373 5.373 0 0 0-1.269-.966l1.825-3.634c.447.267.875.557 1.278.871zm-1.864-1.208l-1.848 3.678a7.138 7.138 0 0 0-1.021-.331l1.384-4.035c.51.202 1.006.431 1.485.688zm-4.202-1.474c.702.13 1.402.313 2.085.549l-1.419 4.135a10.697 10.697 0 0 0-.958-.114l.292-4.57zm-.672-.11l-.295 4.648c-.11-.002-.222-.005-.336-.005-.215 0-.437.004-.669.012l-.35-4.771c.547.003 1.098.042 1.65.116zm-.631 5.319c3.423 0 6.646.932 7.057 7.694.157 2.585-.383 4.565-1.604 5.889-1.781 1.927-4.764 2.2-6.853 2.239l-.226.002c-7.25 0-8.162-5.521-8.217-7.896-.152-6.481 4.447-7.615 8.471-7.879.503-.033.953-.049 1.372-.049zm-1.695-5.42l.352 4.791a23.52 23.52 0 0 0-1.179.101l-.445-4.823a31.91 31.91 0 0 1 1.272-.069zm-1.945.129l.446 4.852c-.245.036-.49.079-.736.127l-1.701-4.708c.635-.115 1.3-.203 1.991-.271zm-2.662.402l1.707 4.723c-.453.113-.901.253-1.336.423l-2.386-4.608a18.76 18.76 0 0 1 2.015-.538zm-2.66.765l2.408 4.652a7.445 7.445 0 0 0-1.248.753l-3.74-4.113a13.316 13.316 0 0 1 2.58-1.292zm-3.139 1.681l3.782 4.16a6.474 6.474 0 0 0-.557.587l-4.921-3.176a10.366 10.366 0 0 1 1.696-1.571zm-2.121 2.102l4.938 3.188a6.663 6.663 0 0 0-.58 1.098l-5.674-1.943a10.54 10.54 0 0 1 1.316-2.343zm-1.551 2.976l5.676 1.944a8.585 8.585 0 0 0-.271 1.143l-6.02-.365c.123-.973.328-1.88.615-2.722zm5.315 3.758a11.55 11.55 0 0 0-.06.94l-6.006.217c.002-.523.024-1.03.066-1.521l6 .364z"></path><path d="M94.321 42.24c.395-.531.497-1.123.307-1.758-.34-1.127-1.378-1.697-3.086-1.697-3.551 0-9.422 2.461-13.204 4.24 2.326-2.134 4.375-5.542 6.118-10.194 1.932-5.158 2.748-10.019 2.757-10.067l.068-.414-.418.021c-4.093.208-4.094.208-12.171-.405-3.104-.236-5.741.907-7.777 2.341.34-.396.681-.805 1.021-1.219 3.824-4.665 5.61-7.978 5.312-9.846-.107-.667-.466-1.159-1.066-1.462a2.116 2.116 0 0 0-.96-.235c-2.005 0-4.238 2.993-6.638 8.896a79.397 79.397 0 0 0-1.571 4.228c.173-3.492-.802-7.313-2.904-11.271-2.307-4.347-5.19-7.378-5.219-7.409l-.456-.475-.12.646c-.162.868-2.091 2.401-4.531 4.342-1.809 1.438-4.059 3.227-6.332 5.33-2.275 2.105-3.117 4.494-3.313 6.594a85.815 85.815 0 0 0-1.388-3.983c-2.311-6.098-4.37-9.063-6.294-9.063-.365 0-.72.11-1.056.325-.572.367-.904.918-.989 1.639-.361 3.095 4.177 9 7.435 12.792-2.921-1.915-6.703-3.009-11.173-3.207-4.917-.216-8.991.732-9.032.742l-.641.151.496.433c.666.58 1.01 3.019 1.444 6.107.321 2.288.723 5.134 1.383 8.16.501 2.301 1.309 3.826 2.188 4.836-3.743-1.37-9.179-3.113-12.624-3.113-2.157 0-3.31.69-3.427 2.052-.054.626.143 1.188.586 1.67 1.304 1.421 4.834 2.141 10.494 2.141 1.594 0 3.163-.059 4.534-.136-3.3.962-6.548 3.067-9.583 6.239-3.402 3.555-5.374 7.246-5.393 7.283l-.308.581.652-.088c.605-.08 1.834.815 3.388 1.951 2.221 1.622 5.263 3.845 9.251 5.344 1.896.712 3.632.969 5.151.969.593 0 1.152-.039 1.674-.106a92.901 92.901 0 0 0-3.778 2.161c-5.158 3.128-7.944 5.657-8.283 7.519a1.899 1.899 0 0 0 .519 1.734c.422.44.956.665 1.585.665 3.149 0 8.342-5.933 11.496-9.949-1.458 3.111-2.03 6.938-1.655 11.312.42 4.904 1.886 8.822 1.901 8.861l.232.615.365-.547c.339-.511 1.824-.839 3.703-1.253 2.686-.595 6.364-1.409 10.125-3.411 3.264-1.74 5.037-4.081 5.992-5.967-.685 4.94-1.512 13.503.547 15.971.414.497.925.749 1.522.749.098 0 .199-.008.301-.021.674-.092 1.209-.451 1.588-1.068 1.734-2.818-.207-10.842-1.596-15.602 1.938 2.498 5.191 5.041 9.74 7.605 5.707 3.22 11.451 5.284 11.509 5.306l.591.21-.149-.61c-.703-2.864-.471-4.009-.12-5.744.283-1.397.635-3.137.635-6.358 0-3.977-.544-6.97-1.208-9.147 2.844 4.452 7.166 10.396 9.959 10.396.554 0 1.034-.214 1.427-.637.463-.498.648-1.114.551-1.833-.271-1.987-2.775-4.811-7.446-8.39a85.115 85.115 0 0 0-3.437-2.491c1.715.61 3.597.92 5.619.92 1.912 0 3.951-.276 6.089-.828 4.67-1.208 8.231-3.337 8.267-3.358l.524-.316-.547-.275c-2.649-1.328-6.145-7.227-7.792-10.502-1.979-3.933-5.375-5.654-7.891-6.407 5.201-.072 14.567-.572 16.53-3.215zm-19.68-19.6c7.832.594 8.111.616 11.83.427-.524 2.766-3.83 18.482-11.719 21.441-.271-.817-.729-1.452-1.371-1.893a3.857 3.857 0 0 0-1.252-.55c5.146-1.754 7.692-5.355 8.946-8.304 1.605-3.774 1.491-7.221 1.485-7.366l-.012-.325h-.325c-.04 0-4.028-.01-9.878-.844-4.854-.692-7.979 3.398-8.829 4.682a4.728 4.728 0 0 0-.644-.499c.21-.327 4.75-7.303 11.769-6.769zm-3.604 38.589c-.146-1.154-.851-2.083-1.503-2.715.349.053.749.092 1.173.092.756 0 1.584-.124 2.312-.514a3.347 3.347 0 0 0 1.357-1.345c.347 1.341 1.377 2.851 3.797 3.42.29.068.582.104.869.104 1.056 0 2.06-.458 2.843-1.317 1.081-1.187 1.507-2.879 1.06-4.209-.374-1.112-1.315-1.863-2.653-2.11-1.541-.288-2.737.243-3.284 1.457-.544 1.208-.255 2.811.63 3.501.334.26 1.25.751 2.568-.293.301-.238.585-.738.496-1.272-.045-.275-.233-.777-.989-1.048-.583-.209-1.166.036-1.52.638a2.054 2.054 0 0 0-.257 1.339c-.554-.557-.704-1.716-.312-2.587.414-.919 1.316-1.299 2.545-1.07 1.101.205 1.84.778 2.136 1.662.366 1.088-.013 2.544-.919 3.538-.485.533-1.528 1.371-3.057 1.011-3.812-.896-3.415-4.174-3.397-4.312l-.033-.005c.255-1.363.05-2.497-.615-3.377-.709-.938-1.796-1.394-2.682-1.616.845-.215 1.795-.609 2.486-1.33.153-.16.285-.33.402-.51.952.032 5.541.394 8.242 4.374a448.313 448.313 0 0 0 5.678 8.17c-1.173.89-6.823 4.521-17.42 1.472.079-.383.096-.765.047-1.148zm-1.183 23.563c-2.88-.553-13.49-3.229-17.14-12.981 1.088-1.238 1.244-3.052 1.25-3.93.243.838.862 2.418 2.223 3.271a3.74 3.74 0 0 0 2.028.571c.399 0 .817-.058 1.253-.168-.736 1.047-1.165 2.594-.412 4.628.485 1.314 1.603 2.196 3.062 2.423.243.038.486.056.729.056 1.342 0 2.635-.56 3.365-1.497.72-.928.825-2.127.293-3.38-.612-1.441-1.717-2.146-3.03-1.931-1.308.213-2.483 1.339-2.57 2.459-.031.421.066 1.456 1.664 1.979.364.118.938.078 1.335-.29.203-.19.518-.624.326-1.404-.149-.601-.673-.951-1.371-.914a2.05 2.05 0 0 0-1.258.526c.159-.769 1.042-1.535 1.983-1.689.994-.163 1.811.38 2.299 1.528.438 1.032.367 1.965-.205 2.699-.705.905-2.127 1.394-3.457 1.188-.712-.109-1.987-.515-2.533-1.988-1.021-2.76.392-4.281 1.211-4.894 1.233-.567 2.062-1.373 2.465-2.405.682-1.74-.042-3.609-.447-4.439l.072-.046c.614.583 2.03 1.742 3.651 1.867.565.745 3.787 5.268 2.705 10.077-1.062 4.729-.108 7.501.509 8.684zM39.565 32.608c-1.308-.996-4.035-2.568-6.576-.848-.159.108-.31.219-.45.332.108-1.197-.174-3.096-2.595-4.364-1.158-.606-2.484-.521-3.637.235-1.251.82-2.029 2.25-1.934 3.557.08 1.094.758 1.992 1.91 2.527.506.236.994.352 1.448.352.738 0 1.385-.308 1.867-.91.773-.968.885-2.488.243-3.32-.243-.314-.963-.976-2.404-.336-.331.147-.708.538-.753 1.048-.023.263.032.767.659 1.191.485.329 1.076.243 1.542-.225a1.95 1.95 0 0 0 .537-1.08c.316.626.176 1.639-.352 2.298-.576.72-1.464.851-2.502.368-.933-.435-1.458-1.113-1.52-1.964-.077-1.053.594-2.263 1.63-2.943.554-.363 1.673-.872 2.953-.202 3.194 1.673 2.092 4.504 2.043 4.625l.012.005a3.644 3.644 0 0 0-.774 1.987c-.15 2.104 1.515 4.036 2.169 4.709-.881-.191-3.332-.58-5.002.535a3.36 3.36 0 0 0-.384.302c-.418-.1-1.974-.758-3.074-5.09a310.639 310.639 0 0 1-2.368-10.101c2.002-.114 11.444-.333 17.115 5.068-.085.808.037 1.606.197 2.244zm15.691-5.087a3.37 3.37 0 0 0-1.85-1.258c1.243-.674 2.514-2.094 2.386-4.68-.069-1.399-.869-2.577-2.194-3.23-1.439-.71-3.183-.652-4.338.146-.966.667-1.426 1.78-1.294 3.134.15 1.56.993 2.563 2.31 2.752 1.312.188 2.772-.532 3.191-1.575.156-.392.374-1.408-.994-2.386-.311-.223-.871-.358-1.36-.125-.252.12-.681.44-.732 1.242-.039.617.357 1.109 1.033 1.283.424.11.932.078 1.358-.124-.383.685-1.454 1.152-2.4 1.016-.998-.144-1.613-.906-1.733-2.149-.107-1.115.24-1.984 1.006-2.513.944-.653 2.447-.692 3.654-.096.646.318 1.74 1.087 1.818 2.658.188 3.809-2.897 4.408-3.186 4.455-1.297-.018-2.326.35-3.067 1.098-.841.851-1.132 2.018-1.219 2.934-.309-.897-.854-1.989-1.789-2.675a3.345 3.345 0 0 0-1.907-.652 7.936 7.936 0 0 1-.083-2.374c.227-2.035 1.146-3.863 2.732-5.434a311.175 311.175 0 0 1 7.505-7.163c1.102 1.65 5.969 9.51 4.369 17.048-1.246.652-1.988 1.93-2.32 2.638.067-.949.036-2.708-.896-3.97zm-1.556 1.61c-.313-.4-.774-.603-1.368-.603h-.003c-1.082 0-1.834.296-2.234.883-.356.521-.334 1.136-.261 1.541-.342.022-.871.066-1.538.153-.032-.726.02-2.423 1.051-3.463.734-.741 1.851-1.025 3.319-.844.887.109 1.574.487 2.045 1.122.876 1.183.82 2.973.746 3.743a24.207 24.207 0 0 0-1.378-.317c.078-.536.137-1.555-.379-2.215zm-.285 2.093a19.822 19.822 0 0 0-2.895-.29c-.064-.277-.123-.771.135-1.144.268-.389.831-.586 1.674-.586h.003c.381 0 .654.112.835.343.334.425.315 1.19.248 1.677zm-.589-9.418c-.257.361-.82.475-1.245.364-.207-.054-.551-.201-.526-.586.021-.349.139-.575.348-.674a.621.621 0 0 1 .267-.056c.155 0 .311.049.41.12.293.21.602.495.746.832zm-7.372 6.166c1.154.845 1.638 2.5 1.81 3.289-.429.072-.892.16-1.381.268-.07-.503-.301-1.594-1.034-2.1-.418-.289-.918-.346-1.485-.169-.96.297-1.569.796-1.81 1.484-.272.779.015 1.583.233 2.027-.427.169-.856.354-1.286.557-.283-.75-.862-2.645-.122-4.077.468-.908 1.407-1.495 2.789-1.744.878-.16 1.648-.003 2.286.465zm-.232 3.709a26.53 26.53 0 0 0-2.798.847c-.169-.328-.434-.983-.231-1.561.167-.475.627-.832 1.371-1.063.364-.112.659-.086.9.08.5.344.702 1.235.758 1.697zm5.045-.073c5.275 0 19.013 3.313 19.227 18.443.066 4.661-1.34 8.483-4.177 11.362-4.565 4.63-11.834 5.645-14.25 5.645-1.306 0-5.907-.174-10.296-2.418-3.598-1.84-6.147-4.563-7.629-8.135l-.037-.164-.026.006c-.833-2.066-1.315-4.41-1.439-7.03-.222-4.717 1.061-8.611 3.812-11.574 5.396-5.814 14.73-6.133 14.815-6.135zm8.501 1.18c.059-.266.223-.78.647-1.013.413-.227 1.006-.149 1.76.232.371.188.581.424.641.722.093.471-.203 1.038-.435 1.377a21.616 21.616 0 0 0-2.613-1.318zm5.857-.883a3.363 3.363 0 0 0-.642-1.478 11.96 11.96 0 0 1 2.097-2.464c1.896-1.684 3.974-2.379 6.17-2.067 4.927.702 8.551.824 9.637.846-.013.936-.164 3.785-1.442 6.777-1.932 4.522-5.451 7.357-10.469 8.442a8.178 8.178 0 0 0-1.196.23c.657-.406 1.908-1.334 2.345-2.736.27-.867.181-1.768-.258-2.682a4.426 4.426 0 0 0 1.827.399c.938 0 2.002-.302 3.123-1.127 1.127-.832 1.667-2.149 1.479-3.614-.203-1.593-1.216-3.014-2.519-3.536-1.089-.437-2.271-.205-3.327.653-1.218.988-1.588 2.244-1.018 3.446.567 1.197 1.976 2.017 3.074 1.79.413-.086 1.382-.466 1.441-2.147.013-.383-.184-.923-.647-1.203-.239-.144-.743-.325-1.44.076-.535.308-.728.91-.499 1.57.143.414.45.82.854 1.063-.788.059-1.763-.576-2.172-1.438-.433-.911-.137-1.845.832-2.632.869-.706 1.786-.896 2.65-.551 1.065.427 1.93 1.658 2.101 2.994.092.714.055 2.051-1.212 2.984-3.152 2.322-5.392-.104-5.485-.208l-.026.023c-.677-.771-1.46-1.225-2.338-1.352-1.456-.211-2.801.53-3.57 1.081.395-.766.83-1.939.63-3.139zm5.392 20.991c.298-.03.979-.048 1.401.355.352.333.47.907.354 1.705-.052.352-.196.594-.445.739-.504.297-1.35.167-1.895.021.266-.898.463-1.838.585-2.82zm-.474-7.894c.342-.157 1.025-.402 1.567-.152.42.193.698.672.825 1.421.064.375 0 .664-.197.882-.39.431-1.238.526-1.718.529a20.61 20.61 0 0 0-.477-2.68zm.967 11.548c.403 0 .816-.07 1.158-.271.432-.253.692-.665.772-1.226.149-1.029-.038-1.802-.559-2.294-.559-.529-1.344-.574-1.795-.548.044-.504.07-1.019.079-1.545.333.014 2.518.153 3.577 1.558.63.833.752 1.979.362 3.408-.234.861-.708 1.488-1.404 1.862-1.416.761-3.387.319-3.992.156.189-.42.36-.85.514-1.292.324.09.799.192 1.288.192zm-.35-6.794a23.254 23.254 0 0 0-.074-1.4c.533-.01 1.58-.117 2.153-.749.341-.376.463-.864.363-1.45-.167-.984-.576-1.63-1.212-1.922-.729-.335-1.552-.095-2.023.105-.146-.509-.309-1-.489-1.474l.127-.034c.355-.058.697-.124 1.034-.196.881-.104 2.061-.08 2.959.537.84.576 1.3 1.593 1.366 3.021.042.892-.214 1.634-.762 2.205-.967 1.011-2.617 1.284-3.442 1.357zM73 32.861c-.069-.202-.137-.57.197-.763.18-.104.343-.156.486-.156a.51.51 0 0 1 .268.072.731.731 0 0 1 .321.599c-.014.362-.08.776-.281 1.083-.442-.014-.847-.422-.991-.835zm-5.533 1.774c1.034.149 1.927.879 2.655 2.167.478.848.598 1.672.356 2.45-.38 1.228-1.562 2.065-2.116 2.401-.201-.427-.415-.84-.643-1.235.334-.23.858-.675 1.054-1.313.15-.489.084-.992-.195-1.496-.496-.894-1.089-1.365-1.766-1.403-.732-.041-1.349.461-1.687.812a17.74 17.74 0 0 0-1.172-1.083c.475-.401 1.957-1.526 3.514-1.3zm-.1 5.204a16.75 16.75 0 0 0-1.776-2.333c.271-.286.726-.651 1.187-.626.428.024.835.38 1.21 1.056.189.34.235.657.142.967-.133.431-.508.757-.763.936zm-.195 20.435c.253.138.579.379.696.746.144.452-.048 1.019-.57 1.686-.235.3-.493.445-.785.446h-.002c-.465 0-.968-.36-1.317-.685a14.722 14.722 0 0 0 1.978-2.193zm-9.326 8.893c.316.171.654.257 1.012.257.267 0 .544-.049.83-.145.862-.289 1.401-.771 1.602-1.432.28-.922-.207-1.925-.522-2.444a19.687 19.687 0 0 0 1.571-.835c.361.763.965 2.387.398 3.835-.279.715-.814 1.306-1.6 1.767l-.021-.045a3.813 3.813 0 0 0-.591.356 7.875 7.875 0 0 1-1.065.38c-1.126.317-2.105.223-2.91-.28-1.373-.86-1.894-2.682-2.021-3.219a27.894 27.894 0 0 0 1.745-.371c.106.349.553 1.623 1.572 2.176zm-.917-2.348a23.622 23.622 0 0 0 3.218-1.133c.254.4.712 1.258.497 1.967-.135.438-.528.771-1.173.985-.489.164-.914.143-1.302-.065-.77-.416-1.145-1.45-1.24-1.754zm-6.12 2.548c-.32.392-.874.578-1.643.544-.381-.015-.65-.137-.822-.375-.397-.549-.218-1.616-.112-1.992 1.307.162 2.32.188 2.835.188h.062c.05.365.091 1.128-.32 1.635zm-11.248-1.902c.176.477.551.811 1.117.993a3.76 3.76 0 0 0 1.158.203c.474 0 .888-.121 1.238-.364.637-.438.886-1.166.982-1.626.446.135.884.252 1.311.354-.116.496-.654 2.435-2.121 3.193-.927.48-2.077.407-3.418-.216-1.353-.629-1.985-1.872-1.879-3.695.055-.938.299-1.8.461-2.283.506.347 1.039.671 1.597.974-.179.317-.796 1.516-.446 2.467zm1.046-2.153c.937.469 1.881.85 2.801 1.155-.064.341-.242.945-.718 1.274-.43.296-1.037.321-1.804.073-.363-.117-.588-.308-.69-.583-.229-.619.2-1.561.411-1.919zm-4.665-3.342l-.06-.024c-.003.008-.352.79-1.004.917-.464.088-1.004-.166-1.606-.759-.271-.267-.388-.539-.355-.83.071-.642.844-1.279 1.204-1.518a15.694 15.694 0 0 0 1.821 2.214zm-4.361-8.112c-.412.159-1.091.341-1.659.095-.462-.2-.786-.667-.962-1.388-.09-.37-.047-.663.134-.894.421-.538 1.508-.657 1.892-.658v-.677c-.072 0-1.711.011-2.423.916-.313.4-.401.896-.26 1.473.229.938.684 1.562 1.353 1.849.293.127.598.174.892.174.454 0 .882-.113 1.2-.229a19.2 19.2 0 0 0 .636 1.925c-.935.087-2.594.077-3.85-.812-.939-.666-1.5-1.723-1.668-3.143-.105-.892.098-1.651.604-2.257.957-1.145 2.751-1.493 3.475-1.59a24.49 24.49 0 0 0 .636 5.216zm-.318-9.135c-.27.068-.781.145-1.168-.113-.394-.262-.599-.824-.608-1.671-.003-.345.102-.599.32-.779.554-.454 1.723-.366 2.259-.273a15.798 15.798 0 0 0-.803 2.836zm3.732-7.481c-.297-.201-1.259-.917-1.333-1.79-.041-.475.203-.947.724-1.401.274-.238.573-.34.914-.311 1.051.088 2.096 1.354 2.106 1.368l.525-.427c-.05-.061-1.234-1.5-2.572-1.615a1.842 1.842 0 0 0-1.417.476c-.694.604-1.014 1.268-.953 1.971.096 1.1 1.121 1.933 1.555 2.239-.373.437-.721.892-1.037 1.364-.623-.661-2.046-2.374-1.919-4.126.073-1.021.673-1.919 1.782-2.67 2.768-1.874 5.894.861 6.423 1.357-1.7.878-3.37 2.036-4.798 3.565zm-6.59-5.87c-.135.135-.403.333-.685.143-.26-.176-.383-.368-.365-.572a.65.65 0 0 1 .354-.491c.259-.115.564-.212.854-.212a1 1 0 0 1 .135.008c.155.362-.016.846-.293 1.124zm.047 9.378c1.368-.914 3.466-.637 4.355-.462a14.43 14.43 0 0 0-.493 1.007l.01-.047c-.08-.017-1.973-.407-2.945.39-.383.314-.574.755-.568 1.31.012 1.083.318 1.833.909 2.226.336.225.709.293 1.04.293.137 0 .267-.013.385-.03a19.202 19.202 0 0 0-.194 2.2c-.575-.001-1.987-.108-2.914-1.068-.761-.788-1.046-1.992-.849-3.578.125-1.011.551-1.765 1.264-2.241zm-1.048 6.125c.048.056.098.112.15.166.656.678 1.486.998 2.196 1.147-.912.243-2.046.711-2.796 1.607-.632.754-.887 1.688-.759 2.773.005.043.014.084.021.127-1.029-.976-2.782-1.751-5.211-.812-1.307.506-2.173 1.635-2.377 3.099-.223 1.59.381 3.226 1.502 4.072a2.95 2.95 0 0 0 1.803.603c.505 0 1.038-.12 1.579-.357 1.434-.635 2.122-1.748 1.887-3.059-.232-1.304-1.376-2.465-2.496-2.534-.423-.025-1.456.086-1.955 1.692-.114.366-.066.938.309 1.331.192.201.631.508 1.409.305.598-.156.94-.687.894-1.384a2.058 2.058 0 0 0-.544-1.25c.771.148 1.55 1.02 1.718 1.958.178.993-.353 1.817-1.495 2.322-1.024.452-1.958.395-2.702-.166-.917-.692-1.426-2.106-1.239-3.44.1-.713.485-1.993 1.952-2.561 3.652-1.413 5.175 1.516 5.239 1.642l.082-.041c.334.865.858 1.56 1.574 2.066 1.111.787 2.457.976 3.489.976.398 0 .75-.028 1.024-.062l.092.209c-.651.521-2.436 2.108-2.704 4.032-.031.226-.04.449-.027.668-.929.301-4.87 1.357-9.076-.782-4.121-2.097-7.206-4.162-8.111-4.788 1.076-1.509 6.714-8.86 14.572-9.559zm-4.52 8.821c.014.214-.018.587-.391.685-.337.089-.59.049-.749-.118a.731.731 0 0 1-.152-.662c.107-.347.281-.728.555-.97.423.13.708.629.737 1.065zm7.829 5.735c.216-1.56 1.671-2.939 2.335-3.495.218.432.454.849.706 1.254-.294.195-1.395.994-1.508 2.007-.057.506.129.973.553 1.389.655.646 1.29.971 1.893.971.108 0 .215-.011.32-.031.748-.147 1.198-.777 1.387-1.108.381.357.784.698 1.206 1.022-.366.432-1.687 1.853-3.299 1.872-1.042.017-2.039-.567-2.959-1.725-.527-.664-.741-1.39-.634-2.156zm3.556 4.556h.048c1.408-.021 2.579-.886 3.268-1.542-.431 1.653-.812 4.75 1.807 6.092-1.594.104-4.597.714-5.722 3.765-.484 1.315-.209 2.712.753 3.832.88 1.024 2.171 1.632 3.377 1.632.228 0 .453-.021.672-.066 1.15-.235 2.009-1.079 2.418-2.376.473-1.495.091-2.748-1.047-3.438-1.132-.687-2.759-.596-3.552.199-.297.299-.897 1.149-.021 2.586.2.327.665.67 1.203.647.278-.013.799-.139 1.16-.856.277-.553.105-1.16-.448-1.586a2.067 2.067 0 0 0-1.297-.418c.62-.479 1.789-.488 2.605.006.861.522 1.129 1.467.753 2.656-.337 1.068-.998 1.731-1.91 1.918-1.124.229-2.523-.321-3.401-1.344-.469-.546-1.175-1.683-.631-3.157.572-1.554 1.752-2.585 3.507-3.067a7.956 7.956 0 0 1 2.542-.262l.025-.262c.54.175 1.053.265 1.537.265.591 0 1.14-.131 1.644-.392.87-.451 1.454-1.217 1.837-1.944.046.847.241 1.812.779 2.604.346.51.798.896 1.35 1.158-.462 1.247-2.523 6.151-6.889 7.886-4.319 1.718-7.924 2.667-8.971 2.928-.517-1.786-2.912-11.187 1.764-17.567.276.066.555.103.84.103zm3.505 9.424c.169.13.429.4.255.746-.157.312-.354.474-.584.484-.243.017-.495-.157-.597-.323-.188-.31-.361-.692-.362-1.059.378-.232.941-.114 1.288.152zm8.962-4.31c-.877-1.291-.681-3.221-.578-3.898a24.5 24.5 0 0 0 1.398.248c-.091.374-.347 1.67.238 2.48.297.412.749.633 1.343.656.065.003.129.005.192.005.898 0 1.572-.27 2.003-.798.554-.683.535-1.603.474-2.093.375-.025.877-.07 1.477-.148.021.564.019 2.825-1.294 4.036-.761.704-1.855.944-3.254.714-.881-.144-1.554-.548-1.999-1.202zm15.083 3.979c.135-.422.639-.699 1.076-.722.216-.014.587.026.679.4.084.339.04.59-.129.748a.737.737 0 0 1-.665.143c-.343-.113-.722-.292-.961-.569zm1.748-11.307c.38-.269.753-.554 1.117-.86.408.393 1.09.915 1.826.915h.002c.507 0 .951-.238 1.316-.707.669-.852.898-1.628.684-2.306-.174-.545-.602-.895-.95-1.098.283-.425.544-.866.782-1.32.613.449 1.845 1.513 2.022 2.92.131 1.035-.334 2.089-1.381 3.134-.632.631-1.357.938-2.143.92-1.367-.037-2.651-1.029-3.275-1.598zm15.207-7.813c.091-.152.269-.377.532-.377.055 0 .114.01.178.032.328.117.514.293.552.521a.736.736 0 0 1-.249.633c-.283.225-.642.441-1.006.487-.276-.346-.228-.92-.007-1.296zm-7.553-43.74c.225 0 .438.053.654.162.403.204.633.52.705.967.183 1.146-.563 3.692-5.164 9.306a98.396 98.396 0 0 1-4.79 5.388c1.623-5.389 5.419-15.823 8.595-15.823zm-7.264 19.794c.225 1.323-.506 2.677-.859 3.239-.375-.28-.756-.543-1.144-.791.271-.402.667-1.139.524-1.863-.1-.509-.437-.911-.999-1.195-.966-.489-1.772-.562-2.396-.219-.593.328-.847.949-.95 1.345a23.385 23.385 0 0 0-1.472-.519c.235-.555 1.007-2.125 2.391-2.683l.01.002.002-.007c.049-.02.099-.039.148-.055.99-.331 2.115-.082 3.345.741.794.533 1.265 1.207 1.4 2.005zM43.909 16.328c2.254-2.086 4.494-3.866 6.293-5.297 2.31-1.836 3.96-3.149 4.553-4.183 1.859 2.11 10.238 12.361 6.77 21.87-.806-.292-1.575-.347-2.302-.157.791-4.375-.452-8.747-1.681-11.713-1.402-3.391-3.037-5.66-3.106-5.755l-.223-.306-.279.255c-.037.034-3.871 3.542-7.811 7.444-3.435 3.402-3.086 7.123-2.857 8.324-.072.009-.144.016-.217.03a6.15 6.15 0 0 0-1.471.45l-.007-.021a92.702 92.702 0 0 0-.791-2.777c-.219-2.3.201-5.455 3.129-8.164zm-7.847 4.573c-3.467-4.418-5.19-7.695-4.982-9.479.06-.517.284-.892.683-1.148.228-.146.454-.217.69-.217 2.73 0 5.995 8.978 7.704 14.69.046.427.11.823.184 1.183a92.612 92.612 0 0 1-4.279-5.029zM20.981 36.378c-.655-3-1.053-5.834-1.374-8.11-.412-2.921-.706-5.01-1.296-6.046 2.793-.538 16.139-2.602 22.496 5.52l.04-.031.001.004a3.477 3.477 0 0 0-1.33 1.877c-3.397-3.051-7.923-4.243-11.176-4.7-3.633-.51-6.418-.252-6.535-.241l-.376.036.079.37c.011.051 1.089 5.133 2.455 10.508.588 2.315 1.385 3.958 2.37 4.881.327.306.625.485.868.59-.317.445-.53.98-.64 1.598a3.847 3.847 0 0 1-.999-.103 90.441 90.441 0 0 0-1.179-.465c-1.614-.916-2.79-2.877-3.404-5.688zm-3.442 7.055c-5.385 0-8.841-.665-9.996-1.922-.313-.341-.447-.719-.41-1.156.031-.354.123-1.433 2.753-1.433 3.961 0 10.879 2.471 14.358 3.818.287.147.564.258.827.34-1.648.145-4.547.353-7.532.353zm2.778 21.217c-3.902-1.465-6.901-3.658-9.09-5.257-1.429-1.044-2.475-1.81-3.283-2.024 1.389-2.381 8.44-13.52 18.51-13.32.016.847.188 1.58.516 2.191-8.835 1.02-14.833 10.001-14.893 10.093l-.178.271.263.188c.035.024 3.513 2.509 8.472 5.032a12.76 12.76 0 0 0 5.817 1.397c1.74 0 3.074-.349 3.676-.54.127.46.356.903.69 1.324.042.052.083.102.126.152l-.013.007a.33.33 0 0 0-.228.021c-.013.007-.525.253-1.354.674-1.919.676-5.137 1.254-9.031-.209zm-3.369 12.899c-.444 0-.803-.149-1.097-.457a1.24 1.24 0 0 1-.342-1.146c.208-1.143 1.759-3.294 7.965-7.06a99.252 99.252 0 0 1 6.045-3.353c.073-.025.145-.052.213-.077-2.381 3.23-9.241 12.093-12.784 12.093zm25.849 5.707c-3.679 1.959-7.305 2.762-9.953 3.347-1.729.382-2.993.661-3.688 1.126-.876-2.64-4.635-15.501 2.427-22.895.382.35.778.619 1.185.811-2.698 3.805-3.021 8.531-2.807 11.854.233 3.645 1.116 6.349 1.154 6.461l.097.293.3-.069c.042-.009 4.205-.978 9.376-3.032 4.682-1.86 6.793-6.946 7.277-8.283.149.041.302.077.462.104.253.042.495.064.732.077.039.484.132.971.277 1.46a1.854 1.854 0 0 1-.015.082l-.098-.013c-.008.053-.752 5.494-6.726 8.677zm9.171-.79c1.282 5.468 1.462 9.167.522 10.694-.274.444-.635.69-1.104.755-.486.065-.88-.092-1.213-.491-1.092-1.311-1.416-4.993-.935-10.648.239-2.806.625-5.46.87-6.993a91.545 91.545 0 0 1 1.86 6.683zm21.03-4.144c0 3.153-.346 4.856-.622 6.225-.33 1.633-.575 2.845-.016 5.422-3.174-1.21-18.268-7.289-21.668-14.582a54.322 54.322 0 0 0-.372-1.121.328.328 0 0 0-.087-.13 6.252 6.252 0 0 1-.197-1.084c.837-.051 1.555-.296 2.144-.741 2.309 5.897 7.068 9.179 10.702 10.902 4.025 1.908 7.473 2.355 7.617 2.374l.843.104-.541-.656c-.005-.007-.546-.674-.912-2.078-.341-1.304-.597-3.522.118-6.7 1.037-4.614-1.541-8.831-2.548-10.256.733-.117 1.406-.473 2.005-1.071a6.04 6.04 0 0 0 .273-.287.245.245 0 0 1 .008.017l-.159.15c.034.036 3.412 3.794 3.412 13.512zm3.55-9.072c4.458 3.417 6.942 6.163 7.185 7.941.07.516-.053.936-.377 1.282-.262.283-.566.421-.931.421-3.019 0-8.844-8.96-11.56-13.639a92.604 92.604 0 0 1 5.683 3.995zm8.527-17.087c3.022 6.008 5.847 9.301 7.573 10.49-2.529 1.371-14.153 7.085-22.266 1.157.167-.261.303-.523.409-.787 3.141.905 5.854 1.247 8.16 1.247 6.724 0 9.967-2.891 10.146-3.056l.222-.203-.175-.242c-.026-.037-2.665-3.719-5.854-8.416-2.678-3.948-6.978-4.563-8.469-4.657.169-.462.243-.975.217-1.534a7.251 7.251 0 0 0-.051-.592c1.586.151 7.312 1.073 10.088 6.593zm-8.712-7.377h-.088c3.039-1.526 11.031-5.325 15.267-5.325 1.395 0 2.192.398 2.438 1.216a1.24 1.24 0 0 1-.201 1.161c-2.033 2.734-13.843 2.948-17.416 2.948z"></path></g><!----><g data-v-423bf9ae="" id="d2fd1b4c-8fa0-44e7-98cc-54b5c6e19ade" fill="#ffffff" transform="matrix(4.419937353317767,0,0,4.419937353317767,109.21421908315668,50.71813115760645)"><path d="M4.93 7.81L8.81 2.21L7.53 2.21L4.40 6.72L1.26 2.21L-0.01 2.21L3.88 7.81L3.88 11.48L4.93 11.48ZM20.55 2.10C17.74 2.10 15.85 4.21 15.85 6.85C15.85 9.48 17.74 11.59 20.55 11.59C23.37 11.59 25.26 9.48 25.26 6.85C25.26 4.21 23.37 2.10 20.55 2.10ZM20.55 10.57C18.30 10.57 16.90 8.93 16.90 6.85C16.90 4.76 18.30 3.12 20.55 3.12C22.81 3.12 24.21 4.76 24.21 6.85C24.21 8.93 22.81 10.57 20.55 10.57ZM37.91 2.10C35.13 2.10 33.35 4.21 33.35 6.85C33.35 9.48 35.06 11.59 37.88 11.59C39.56 11.59 40.66 10.74 41.24 9.84L41.24 11.48L42.21 11.48L42.21 6.55L37.86 6.55L37.86 7.50L41.24 7.50C41.24 9.44 39.65 10.57 37.97 10.57C35.71 10.57 34.40 8.93 34.40 6.85C34.40 4.76 35.74 3.12 38.00 3.12C39.41 3.12 40.42 3.74 40.98 4.73L42.13 4.73C41.44 3.18 39.90 2.10 37.91 2.10ZM55.22 2.21L53.90 2.21L49.97 11.48L51.13 11.48L52.26 8.79L56.85 8.79L57.99 11.48L59.15 11.48ZM52.67 7.83L54.56 3.30L56.45 7.83Z"></path></g></svg>