<?xml version='1.0' encoding='utf-8'?>
<svg xmlns="http://www.w3.org/2000/svg" version="1.1" id="Layer_1" x="0px" y="0px" viewBox="465.9997 -33.2869 1628.0002 1666.5739" enable-background="new 465.9997 -33.2869 1628.0002 1666.5739"> <g id="layer1_1_" transform="translate(-210.63 -364.11)"> <path id="path2396_1_" d="M1674.7654,364.11l-142.1121,149.3132l149.3608,137.2957l144.4966-146.9288L1674.7654,364.11z"/> <path id="path3168_1_" d="M1383.3402,445.9915c0,0,158.9464,500.9695,618.9987,84.3135 c2.4321,2.3845,125.2305,163.7629,127.6626,163.7629c-178.2604,199.9108-722.5786,308.3072-746.6614-248.0764L1383.3402,445.9915 L1383.3402,445.9915z"/> <path id="path3170_1_" d="M959.3881,1021.6413L848.6072,821.7305c566.8275-380.5555,873.5131,168.5795,464.869,416.7037 l132.4791,52.9821c158.1831-6.4856,135.4357-194.5697,303.4906-346.8397c63.4258-76.3018,512.224-176.6388,522.6676,464.869 c-26.2285,582.1245-711.3716,541.9341-597.3484,0c40.1299,209.1467,195.2008,217.5673,316.8134,161.9077 c184.0975-86.0382,180.8688-229.8975,181.6078-288.2218c1.814-143.1672-67.2197-350.2632-245.5282-222.9576 c-91.4915,65.3215-95.5204,136.4851-113.2128,171.0116c-17.6449,34.5266-73.4406,169.1992-313.1237,127.6626 c223.6121,462.3416-146.6904,585.0922-183.0292,592.5315c-93.8989,47.2594-665.6382-3.8627-604.5967-739.4602 c48.9763,385.3719,242.7353,591.2438,551.6147,513.0345c233.8176-59.1814,232.8162-480.1293-127.6625-342.0232l-81.8815-255.3248 c-3.4813-10.8254,115.9788,30.3777,238.4432-2.3844c99.4309-26.6105,181.5985-220.894-79.4971-221.6093 c-114.405-0.2861-170.2009,78.6862-255.3251,118.0293L959.3881,1021.6413z"/> </g> </svg>